:SAMPLES-PER-SECOND 30
:FULLY-SPECIFIED
:DEGREES
371
root  35.0291 33.1152 41.7274 -174.692 -50.2104 177.523
RightUpLeg  -7.19436 -2.23544 -16.0763
RightLeg  18.5335 -2.04934 -0.543752
RightFoot  4.87829 0.0240993 -0.129206
RightToes  -45.7579 -0.266036 -0.345284
Spine  4.25659 -2.64522 -2.25478
Spine1  8.04848 -5.15131 -4.64288
HEad  12.6002 -2.37884 13.2198
LeftShoulder1  0 -2.42657e-020 -4.95415e-022
LeftArm  -11.4562 6.1806 -72.1043
LeftForeArm  49.4755 -59.9258 -17.7773
LeftHand  -0.0189346 -10.3819 -0.161642
RightShoulder  0 2.42657e-020 1.07489e-018
RightArm  -25.753 -21.6285 85.2642
RightForeArm  46.6771 60.4187 18.1665
RightHand  -1.84729 22.0034 -9.11368
LeftUpLeg  -7.22969 16.582 10.0953
LeftLeg  16.9062 -13.7471 -3.19824
LeftFoot  3.28814 0.0274621 -0.956776
LeftToes  -40.1216 3.33339e-006 -4.73431e-007
372
root  35.5562 33.0591 41.0271 -175.122 -50.2754 177.961
RightUpLeg  -7.65203 -5.55286 -14.5506
RightLeg  19.9084 -0.132958 -0.0399859
RightFoot  2.17931 0.00614453 0.0544816
RightToes  -43.9834 -0.251061 -0.336501
Spine  4.34105 -2.70277 -2.03683
Spine1  8.18287 -5.26597 -4.25531
HEad  12.3126 -2.23079 12.3267
LeftShoulder1  0 -2.42657e-020 -4.95415e-022
LeftArm  -11.545 6.67258 -72.9267
LeftForeArm  49.5133 -60.6167 -18.3037
LeftHand  -0.0202629 -10.3803 -0.146978
RightShoulder  0 2.42657e-020 1.07489e-018
RightArm  -24.7007 -21.1835 84.8285
RightForeArm  47.9629 62.2409 19.6575
RightHand  -1.91063 22.062 -9.41075
LeftUpLeg  -5.9926 17.6761 11.979
LeftLeg  14.7881 -15.1445 -2.93755
LeftFoot  4.65244 0.0577956 -1.42269
LeftToes  -41.4396 3.33339e-006 -4.73431e-007
373
root  36.1366 33 40.3894 -175.326 -49.9617 178.445
RightUpLeg  -8.46424 -5.22672 -12.9078
RightLeg  21.0352 0.0810102 0.0234305
RightFoot  0.12601 0.00483978 0.06332
RightToes  -43.1063 -0.243761 -0.331989
Spine  4.40307 -2.677 -1.77438
Spine1  8.2586 -5.20872 -3.79627
HEad  11.5951 -1.79673 11.2618
LeftShoulder1  0 -2.42657e-020 -4.95415e-022
LeftArm  -11.4294 7.24328 -73.6921
LeftForeArm  49.314 -61.8972 -19.3472
LeftHand  -0.0319598 -10.1206 -0.00903614
RightShoulder  0 2.42657e-020 1.07489e-018
RightArm  -23.5223 -20.4904 84.0834
RightForeArm  48.433 64.0529 21.3499
RightHand  -2.00045 21.9819 -9.90633
LeftUpLeg  -5.32491 17.4898 13.5568
LeftLeg  13.0988 -14.668 -2.40633
LeftFoot  5.87388 0.0874336 -1.70411
LeftToes  -41.5048 3.33339e-006 -4.73431e-007
374
root  36.7272 32.9755 39.7196 -176.335 -50.6091 -179.86
RightUpLeg  -8.48188 -4.38852 -10.2277
RightLeg  21.0768 -1.19674 -0.376678
RightFoot  -1.37734 0.00470136 0.0890956
RightToes  -41.3762 -0.229569 -0.322764
Spine  4.51931 -2.88168 -1.18256
Spine1  8.42883 -5.63274 -2.72163
HEad  10.4771 -1.3611 10.2675
LeftShoulder1  0 -2.42657e-020 -4.95415e-022
LeftArm  -11.2713 7.58091 -74.7027
LeftForeArm  50.0082 -63.4601 -20.7548
LeftHand  -0.068981 -10.0605 0.414012
RightShoulder  0 2.42657e-020 1.07489e-018
RightArm  -22.7936 -19.3945 83.0234
RightForeArm  47.2842 65.5649 22.9619
RightHand  -1.96755 21.5446 -9.94734
LeftUpLeg  -6.06143 16.2408 15.7308
LeftLeg  13.21 -13.5584 -2.25491
LeftFoot  6.51478 0.0994973 -1.74809
LeftToes  -41.1026 3.33339e-006 -4.73431e-007
375
root  37.3062 32.9675 39.239 -176.38 -51.341 -178.998
RightUpLeg  -9.35037 -4.06572 -8.26351
RightLeg  21.6886 -2.34885 -0.765186
RightFoot  -2.82176 0.00128251 0.175365
RightToes  -39.236 -0.212409 -0.310766
Spine  4.5978 -3.03281 -0.746779
Spine1  8.52205 -5.94622 -1.93492
HEad  9.29574 -1.26829 9.57383
LeftShoulder1  0 -2.42657e-020 -4.95415e-022
LeftArm  -10.7787 6.74693 -75.6901
LeftForeArm  50.6887 -64.38 -21.6641
LeftHand  -0.152473 -9.93128 1.38578
RightShoulder  0 2.42657e-020 1.07489e-018
RightArm  -22.451 -17.808 81.9343
RightForeArm  47.1337 67.0274 24.7302
RightHand  -1.95439 20.8452 -10.2288
LeftUpLeg  -8.63098 14.7657 16.4157
LeftLeg  15.6425 -8.14581 -1.72109
LeftFoot  7.24676 0.0772635 -1.22009
LeftToes  -40.4707 3.33339e-006 -4.73431e-007
376
root  37.7029 33.0267 38.7559 -176.663 -52.8017 -178.606
RightUpLeg  -9.00993 -4.80276 -6.86697
RightLeg  21.7882 -3.25927 -1.06682
RightFoot  -3.69052 -0.00354455 0.267578
RightToes  -37.4103 -0.198133 -0.300031
Spine  4.83894 -3.29644 -0.482747
Spine1  8.91563 -6.48692 -1.46211
HEad  8.12452 -1.38031 9.68089
LeftShoulder1  0 -2.42657e-020 -4.95415e-022
LeftArm  -9.77332 5.0817 -76.3208
LeftForeArm  51.4743 -64.7886 -22.0886
LeftHand  -0.265664 -9.9232 2.69137
RightShoulder  0 2.42657e-020 1.07489e-018
RightArm  -22.467 -16.4402 81.1533
RightForeArm  48.8649 68.7206 27.1006
RightHand  -2.11919 20.3222 -11.4171
LeftUpLeg  -11.5112 16.1455 15.8282
LeftLeg  19.8516 -0.118471 -0.0366975
LeftFoot  6.62277 0.0109475 -0.18922
LeftToes  -32.1109 3.33339e-006 -4.73431e-007
377
root  37.9587 33.1166 38.3484 -176.425 -53.5686 -178.835
RightUpLeg  -8.46322 -6.02775 -6.25923
RightLeg  21.1738 -3.00141 -0.946901
RightFoot  -4.02238 -0.0040694 0.261711
RightToes  -36.954 -0.194619 -0.297277
Spine  5.03741 -3.30886 -0.426007
Spine1  9.2245 -6.51462 -1.36256
HEad  6.89306 -1.78596 10.0454
LeftShoulder1  0 -2.42657e-020 -4.95415e-022
LeftArm  -9.16472 3.05111 -76.9941
LeftForeArm  52.8028 -65.3578 -22.7036
LeftHand  -0.456941 -10.1276 4.78658
RightShoulder  0 2.42657e-020 1.07489e-018
RightArm  -22.2575 -15.3019 80.4707
RightForeArm  52.4231 71.0732 31.1829
RightHand  -2.44655 19.9443 -13.4832
LeftUpLeg  -13.9719 18.9611 14.086
LeftLeg  24.5527 3.60877 1.37183
LeftFoot  3.88066 -0.00261696 0.0772373
LeftToes  -22.399 3.33339e-006 -4.73431e-007
378
root  38.0809 33.1791 37.9736 -176.421 -53.843 -179.05
RightUpLeg  -7.55141 -6.06735 -5.78301
RightLeg  20.3946 -3.40095 -1.0215
RightFoot  -4.5058 -0.00607283 0.311806
RightToes  -36.2855 -0.189511 -0.293193
Spine  5.24703 -3.16976 -0.431272
Spine1  9.54176 -6.22483 -1.38548
HEad  5.98877 -2.23207 10.6357
LeftShoulder1  0 -2.42657e-020 -4.95415e-022
LeftArm  -8.52644 1.0723 -77.3391
LeftForeArm  54.5114 -66.7778 -24.3804
LeftHand  -0.62592 -9.79586 6.92925
RightShoulder  0 2.42657e-020 1.07489e-018
RightArm  -22.0481 -14.2021 79.8615
RightForeArm  58.8284 73.9651 38.1928
RightHand  -2.60883 19.5531 -14.6905
LeftUpLeg  -15.4266 23.2888 11.8247
LeftLeg  28.4031 1.59528 0.730845
LeftFoot  2.62644 0.00254217 -0.110905
LeftToes  -27.4821 3.33339e-006 -4.73431e-007
379
root  38.0943 33.2318 37.6146 -176.254 -54.6119 -179.08
RightUpLeg  -6.67889 -6.47238 -5.29265
RightLeg  19.4832 -3.80357 -1.076
RightFoot  -4.74024 -0.00625284 0.350625
RightToes  -35.9043 -0.186079 -0.290284
Spine  5.24328 -3.21574 -0.410606
Spine1  9.45397 -6.30589 -1.37519
HEad  5.37981 -2.74397 11.1689
LeftShoulder1  0 -2.42657e-020 -4.95415e-022
LeftArm  -8.50215 -0.542469 -77.8072
LeftForeArm  57.2056 -68.6557 -26.9649
LeftHand  -0.790155 -9.55248 9.07207
RightShoulder  0 2.42657e-020 1.07489e-018
RightArm  -21.5298 -13.2582 79.3768
RightForeArm  70.5556 76.9359 50.0545
RightHand  -2.83444 19.5759 -15.9574
LeftUpLeg  -16.4987 25.6334 9.2823
LeftLeg  30.8797 1.27671 0.652153
LeftFoot  -0.580429 -0.00103106 -0.203564
LeftToes  -23.4519 3.33339e-006 -4.73431e-007
